<svg xmlns="http://www.w3.org/2000/svg" xmlns:xlink="http://www.w3.org/1999/xlink" viewBox="20 -187 221 221"><defs><style>.a{fill:#fff;}.b{filter:url(#a);}</style><filter id="a" x="20" y="-187" width="221" height="221" filterUnits="userSpaceOnUse"><feOffset dy="3" input="SourceAlpha"/><feGaussianBlur stdDeviation="3" result="b"/><feFlood flood-opacity="0.302"/><feComposite operator="in" in2="b"/><feComposite in="SourceGraphic"/></filter></defs><g transform="translate(-57 -385)"><g class="b" transform="matrix(1, 0, 0, 1, 57, 385)"><circle class="a" cx="101.5" cy="101.5" r="101.5" transform="translate(29 -181)"/></g><g transform="translate(109 227)"><path d="M78.25,7C39.032,7,7,35.9,7,71.773c0,20.233,10.357,38.155,26.272,50a36.2,36.2,0,0,1-8.527,15.367c-1.661,1.813-3.256,3.315-4.546,4.841a8.384,8.384,0,0,0-2.4,5.356V149.5h2.159c14.726,0,29.51-9.083,38.459-15.578a77.374,77.374,0,0,0,19.837,2.623c39.218,0,71.25-28.9,71.25-64.773S117.468,7,78.25,7Zm0,4.318c37.1,0,66.932,27.166,66.932,60.455s-29.831,60.455-66.932,60.455a73.382,73.382,0,0,1-19.719-2.674l-1.012-.287-.852.633c-7.768,5.7-20.781,13.334-33.036,14.734,1.046-1.214,2.572-2.69,4.3-4.571a40.2,40.2,0,0,0,9.977-18.386l.354-1.425-1.206-.843c-15.7-11.107-25.74-28.3-25.74-47.635C11.318,38.484,41.149,11.318,78.25,11.318Zm.127,6.477a2.159,2.159,0,1,0,2.151,2.159A2.16,2.16,0,0,0,78.377,17.8ZM67.008,18.9a1.435,1.435,0,0,0-.43.042,2.146,2.146,0,1,0,.43-.042Zm22.78.042a2.115,2.115,0,1,0,.371.034A2.638,2.638,0,0,0,89.788,18.942ZM56.069,22.19a2.414,2.414,0,0,0-.843.16,2.162,2.162,0,1,0,.843-.16Zm44.649.093a2.152,2.152,0,0,0-2.049,2.977,2.118,2.118,0,0,0,1.164,1.172,2.159,2.159,0,0,0,1.653,0,2.118,2.118,0,0,0,1.172-1.164,2.159,2.159,0,0,0-1.164-2.817A1.919,1.919,0,0,0,100.718,22.282ZM45.99,27.554a2.282,2.282,0,0,0-1.231.363,2.152,2.152,0,1,0,1.231-.363Zm64.781.127a2.159,2.159,0,0,0-1.248,3.947,2.164,2.164,0,0,0,3-.582,2.156,2.156,0,0,0-.59-2.994A2.118,2.118,0,0,0,110.771,27.68Zm-73.62,7.11a2.212,2.212,0,0,0-1.569.624,2.178,2.178,0,1,0,1.569-.624Zm82.433.169a2.155,2.155,0,1,0-.034,4.31,2.115,2.115,0,0,0,1.527-.624,2.151,2.151,0,0,0-1.493-3.686ZM29.89,43.6a2.16,2.16,0,0,0-1.248,3.956,2.16,2.16,0,0,0,2.412-3.584A2.289,2.289,0,0,0,29.89,43.6Zm96.931.2a2.156,2.156,0,0,0-1.83,3.348,2.157,2.157,0,1,0,1.83-3.348ZM24.484,53.673a2.16,2.16,0,1,0,1.948,1.333,2.148,2.148,0,0,0-1.948-1.333Zm107.685.219a2.246,2.246,0,0,0-.843.169,2.157,2.157,0,1,0,2.825,1.172A2.192,2.192,0,0,0,132.168,53.893ZM21.161,64.6a2.168,2.168,0,1,0,.354.042A1.693,1.693,0,0,0,21.161,64.6Zm114.305.236a1.889,1.889,0,0,0-.439.042,2.176,2.176,0,0,0-1.375.911,2.214,2.214,0,0,0-.32,1.628,2.159,2.159,0,1,0,2.134-2.581ZM19.955,75.973a2.159,2.159,0,1,0,2.159,2.168A2.156,2.156,0,0,0,19.955,75.973Zm116.591.228a2.159,2.159,0,1,0,2.159,2.168,2.115,2.115,0,0,0-.624-1.527A2.185,2.185,0,0,0,136.545,76.2ZM22.687,86.414a2.058,2.058,0,0,0-.843.16,2.118,2.118,0,0,0-1.164,1.172,2.159,2.159,0,0,0,0,1.653,2.117,2.117,0,0,0,1.172,1.164,2.157,2.157,0,1,0,.835-4.15Zm111.193,0a2.154,2.154,0,1,0,1.94,1.333,2.184,2.184,0,0,0-1.164-1.164A2.106,2.106,0,0,0,133.88,86.414Zm-6.4,9.783a2.161,2.161,0,1,0,1.164.371A2.144,2.144,0,0,0,127.479,96.2Zm-98.39.008a2.261,2.261,0,0,0-1.231.363,2.168,2.168,0,0,0-.582,3,2.154,2.154,0,1,0,1.813-3.365Zm7.894,8.071a2.159,2.159,0,0,0-1.569,3.686,2.162,2.162,0,1,0,1.569-3.686Zm82.442.16a2.166,2.166,0,0,0-1.56.633,2.143,2.143,0,0,0-.633,1.527,2.115,2.115,0,0,0,.624,1.527,2.162,2.162,0,1,0,3.062-3.053A2.151,2.151,0,0,0,119.425,104.437Zm-8.856,7.245a2.153,2.153,0,1,0,1.771.953A2.133,2.133,0,0,0,110.569,111.682Zm-10.1,5.364a2.176,2.176,0,0,0-.843.16,2.214,2.214,0,0,0-1.181,1.164,2.159,2.159,0,1,0,2.024-1.324Zm-33.651,3.239a2.168,2.168,0,1,0,.363.042A1.707,1.707,0,0,0,66.822,120.285Zm22.7.059a1.861,1.861,0,0,0-.43.042,2.176,2.176,0,0,0-1.375.911,2.125,2.125,0,0,0-.32,1.619,2.158,2.158,0,1,0,2.125-2.572ZM78.14,121.432a2.159,2.159,0,0,0-.008,4.318,2.115,2.115,0,0,0,1.527-.624,2.159,2.159,0,0,0-1.518-3.694Z" transform="translate(0 0)"/></g></g></svg>